<svg version="1.1" id="Layer_1" xmlns="http://www.w3.org/2000/svg" xmlns:xlink="http://www.w3.org/1999/xlink" x="0px" y="0px"
	 width="100%" viewBox="0 0 122 156" enable-background="new 0 0 122 156" xml:space="preserve">
<path fill="#FDFDFD" opacity="1.000000" stroke="none" 
	d="
M90.266891,156.695114 
	C61.370369,157.000000 32.740692,156.979065 4.111195,157.040939 
	C1.891598,157.045731 0.910494,156.901901 0.916843,154.118668 
	C1.031120,104.017067 1.036796,53.915051 0.907110,3.813534 
	C0.899460,0.858097 2.117938,0.972538 4.178986,0.975041 
	C34.140182,1.011424 64.101440,1.000000 94.531342,1.000000 
	C96.329597,2.470538 96.438469,4.294727 96.419098,6.125054 
	C96.368301,10.925645 96.317513,15.591820 99.386955,19.861027 
	C101.062080,22.190891 100.241150,24.956600 97.691528,27.279335 
	C94.918022,28.632975 92.389259,28.462233 89.465073,28.047100 
	C88.023636,26.792015 86.855782,27.665257 85.355942,27.724682 
	C84.506721,27.525814 84.091759,27.269320 83.659691,26.545897 
	C84.567116,24.540695 87.060471,22.632286 82.695030,22.033606 
	C80.284691,21.703045 79.030975,19.848656 78.089912,17.838760 
	C77.138725,15.807209 75.666977,14.728913 73.053757,14.721275 
	C72.279175,14.422719 71.902214,14.143103 71.408913,13.477086 
	C71.121140,12.514189 71.169945,13.361567 71.071693,12.702179 
	C70.035110,5.745253 68.139229,4.977783 61.532288,9.163473 
	C60.644585,9.709741 59.984383,9.842758 58.969688,9.786032 
	C57.499146,9.226734 56.395176,8.892437 55.591911,10.744390 
	C52.386215,13.864887 49.706779,16.748962 48.709801,21.143963 
	C47.824955,25.044657 39.284100,29.878380 35.497787,28.988493 
	C29.522966,27.584246 24.315811,28.200445 20.347664,33.400917 
	C16.317070,38.683231 17.436020,43.922363 20.464809,49.152328 
	C20.713249,49.581318 20.915913,50.037098 21.320366,50.778793 
	C21.943254,51.877544 22.411552,52.661640 23.248165,53.612564 
	C23.672537,54.302101 23.837564,54.734592 24.026854,55.526825 
	C24.120214,56.101009 24.145281,56.332539 24.184872,56.912922 
	C24.201965,58.192291 24.106091,59.113956 23.876499,60.367325 
	C23.613728,61.362854 23.362782,61.999897 23.016592,62.963196 
	C22.277250,64.773399 21.185398,65.901657 19.796749,67.209839 
	C18.918684,68.009506 18.348003,68.628197 18.161161,69.847191 
	C18.021481,70.587906 17.912769,71.003586 17.648865,71.704208 
	C17.228098,72.530693 16.902693,73.051384 16.785631,73.965424 
	C16.762335,74.652863 16.729500,75.041100 16.610310,75.698189 
	C16.445753,76.523575 16.561665,77.017914 17.132057,77.657112 
	C17.505510,78.214912 17.630846,78.578384 17.741131,79.248032 
	C17.846416,80.116714 18.021246,80.651657 18.678116,81.282333 
	C20.770079,83.328812 22.344843,85.488785 25.046665,86.868690 
	C25.741402,87.202591 26.154222,87.355324 26.910048,87.535042 
	C29.324114,87.828453 31.414858,87.687004 33.853615,87.759727 
	C34.676273,87.804665 35.141842,87.867638 35.937965,88.054581 
	C36.480015,88.242393 36.687160,88.337624 37.164940,88.633911 
	C38.623924,90.358528 39.855968,91.820984 42.263680,92.175049 
	C42.761414,92.385124 42.952454,92.488457 43.392918,92.801361 
	C44.850616,94.532059 46.321976,95.781548 48.042645,97.235229 
	C49.568707,98.613632 50.357571,100.153885 51.552460,101.787231 
	C52.002853,102.379562 52.269550,102.711685 52.759911,103.280182 
	C53.250198,103.859207 53.492840,104.217117 53.836948,104.890526 
	C54.457554,106.224106 54.575226,107.838966 56.708286,106.598068 
	C57.605915,106.210350 58.242523,106.119797 59.213127,106.165680 
	C60.523029,106.398033 61.507359,106.729515 62.830750,106.321625 
	C63.919651,106.038826 64.733833,105.964706 65.847099,105.826897 
	C66.551201,105.719093 66.952454,105.650887 67.654503,105.513306 
	C68.159554,105.416679 68.363075,105.385124 68.869545,105.311234 
	C70.471848,105.157539 70.722328,104.101578 71.222527,102.836143 
	C71.605759,102.129692 71.910255,101.784363 72.561844,101.286179 
	C73.937569,100.557419 75.088921,100.232674 76.576828,99.790405 
	C84.374550,97.522636 84.360222,97.509796 89.809013,91.431717 
	C90.680710,90.459351 91.706047,89.617737 93.009666,88.551041 
	C94.118156,88.143715 94.885147,88.167732 95.989494,88.628395 
	C99.112648,93.419388 99.173195,97.946503 95.758072,102.200676 
	C94.565414,103.686348 94.569496,104.779297 95.150528,106.621368 
	C97.636063,114.501511 96.037880,122.676285 96.381386,130.721375 
	C96.408401,131.354248 95.717537,131.833801 94.915634,132.466888 
	C93.581276,133.336777 91.941910,132.857727 91.268661,134.679138 
	C91.080856,135.409607 90.953316,135.826126 90.662697,136.545410 
	C90.365883,137.027634 90.215446,137.202011 89.763077,137.550659 
	C89.019684,137.881668 88.565582,137.983612 87.749985,138.049469 
	C85.734108,138.169571 84.819336,136.808289 83.240082,135.831772 
	C83.203102,139.832428 84.383972,143.422836 84.574127,147.110107 
	C84.658546,148.747162 86.206459,148.292267 87.691048,148.004333 
	C88.544746,147.885651 89.041954,147.862854 89.927841,147.900375 
	C90.837593,148.030609 91.330704,148.209595 92.096115,148.736328 
	C93.791122,151.975647 92.282860,154.213318 90.266891,156.695114 
z"/>
<path fill="#F9FAFA" opacity="1.000000" stroke="none" 
	d="
M92.192764,132.636810 
	C94.110260,131.812683 96.050224,131.652100 95.477692,128.897385 
	C94.392769,123.677330 95.238258,118.371338 95.006165,113.108383 
	C94.879456,110.235321 95.798882,107.060776 92.180664,105.382362 
	C91.252563,104.951843 90.842712,103.773857 92.238159,103.141403 
	C98.959061,100.095306 96.935463,94.670433 95.977081,89.098740 
	C96.153587,88.535156 96.347290,88.403442 96.872940,88.162338 
	C99.842194,88.135719 102.398361,88.284912 104.573601,86.145889 
	C106.439812,84.310753 109.398651,85.313553 111.747528,83.746384 
	C112.323624,79.600784 109.825089,76.994781 107.543518,73.975082 
	C107.072594,73.637474 106.891823,73.490395 106.475800,73.083221 
	C105.951851,72.449684 105.674904,72.067688 105.198227,71.386093 
	C104.056793,69.639580 103.195099,68.160667 103.363342,65.972717 
	C104.398186,63.341362 104.559357,60.864429 105.442238,58.216927 
	C110.254181,56.925549 112.003174,54.116131 112.258118,49.361828 
	C112.465218,45.499874 111.367294,43.828060 107.333664,43.536674 
	C105.408394,41.712536 105.632347,39.400021 104.946716,37.410732 
	C103.519508,33.269814 100.172432,30.857512 96.952614,27.855501 
	C99.496864,24.002897 99.948425,20.831856 96.210266,17.522074 
	C93.820656,15.406302 95.229477,12.154545 95.036858,9.413976 
	C94.862411,6.931931 95.000000,4.427956 95.000000,1.466825 
	C101.021156,1.000000 107.042305,1.000000 113.531731,1.000000 
	C114.662872,1.773065 115.253029,2.643428 115.290642,3.654702 
	C115.807625,17.554701 119.146858,31.184860 117.921219,45.320908 
	C116.701180,59.392284 117.634590,73.611137 117.616394,87.765175 
	C117.611397,91.653740 117.360710,95.350227 114.949356,98.688057 
	C113.313194,100.952843 113.606110,103.779274 113.602448,106.440529 
	C113.582977,120.595451 113.613678,134.750443 113.577789,148.905304 
	C113.571510,151.380585 113.883781,153.925751 112.290451,156.618042 
	C104.979050,157.000000 97.958107,157.000000 90.468582,157.000000 
	C89.407150,154.318954 92.555405,152.720764 92.032455,149.682846 
	C89.682205,146.159882 90.883125,142.511246 90.676468,138.645721 
	C90.848495,137.696335 90.942482,137.160233 91.036804,136.229126 
	C91.193596,134.818283 91.541466,133.869385 92.192764,132.636810 
z"/>
<path fill="#F7F7F7" opacity="1.000000" stroke="none" 
	d="
M112.482956,157.000000 
	C112.000015,139.333847 112.021660,121.667633 111.979584,104.001579 
	C111.972237,100.915939 112.092270,97.986168 114.889015,95.942429 
	C116.543091,94.733704 115.967987,92.906387 115.977081,91.312088 
	C116.025543,82.812607 116.242104,74.304214 115.944420,65.814896 
	C115.473793,52.393620 117.209610,39.009453 116.114059,25.561777 
	C115.471809,17.678289 112.706276,9.978019 114.000000,1.466348 
	C116.992035,1.000000 121.120911,-0.164223 122.652527,1.331369 
	C124.148224,2.791880 122.998886,6.968142 122.998978,9.952213 
	C123.000435,57.159885 122.905571,104.368027 123.143333,151.574509 
	C123.167610,156.394958 122.026947,157.891876 117.446198,157.041885 
	C115.999977,156.773529 114.461929,157.000000 112.482956,157.000000 
z"/>
<path fill="#16393F" opacity="1.000000" stroke="none" 
	d="
M106.763382,72.443130 
	C106.683517,72.760368 106.539146,72.866791 106.552231,72.955513 
	C108.312607,73.677307 108.038391,75.188446 108.031250,76.963997 
	C105.932350,82.702438 103.583908,87.736938 96.650055,88.725662 
	C96.255646,88.705688 96.108994,88.677216 96.034439,88.672043 
	C95.212067,88.727943 94.464256,88.789009 93.358971,88.968391 
	C92.084763,89.896088 91.004539,90.142250 89.496765,89.951080 
	C88.793297,89.750740 88.415634,89.593246 87.761734,89.477943 
	C87.293007,89.643028 87.112083,89.738838 86.661690,89.999420 
	C84.878456,91.100456 83.367134,92.040237 81.748276,93.420090 
	C81.133972,93.930962 80.761726,94.197113 80.071945,94.611816 
	C75.953339,95.459885 75.702705,99.527763 73.006790,101.724045 
	C72.365112,101.916092 72.138290,102.087875 71.973877,102.615105 
	C71.295326,103.915192 70.970306,105.292763 69.111748,105.371330 
	C68.646790,105.275406 68.477814,105.304649 68.179649,105.556335 
	C67.792915,106.235207 67.427872,106.576820 66.579285,106.736023 
	C65.342079,106.775131 64.481163,106.882095 63.301842,107.078598 
	C62.269054,107.535126 61.503071,107.485466 60.378853,107.314133 
	C59.299164,106.993179 58.579002,106.804268 57.488037,106.571983 
	C55.501286,107.147255 54.361183,106.411957 53.274765,104.876846 
	C53.118290,104.249252 52.959900,104.047348 52.492989,103.911392 
	C51.925327,103.777115 51.612949,103.573433 51.212044,103.043266 
	C50.267193,101.337585 49.459648,99.881310 48.425102,98.207520 
	C46.920483,96.140808 45.172932,94.758217 43.444855,92.948540 
	C43.368084,92.617027 43.321709,92.927589 43.326065,92.770691 
	C40.940182,92.305763 38.932365,91.328232 37.452324,88.960564 
	C37.378891,88.622963 37.302841,88.954605 37.323132,88.785751 
	C36.514271,88.703827 35.641216,88.279099 34.541855,88.748344 
	C31.992500,88.482391 29.718742,89.326126 27.138353,88.549889 
	C26.315212,88.828606 25.886398,88.781128 25.245203,88.239136 
	C22.666206,86.355553 20.161232,84.907646 18.434151,82.117584 
	C17.578426,81.641525 17.266945,81.155884 17.194336,80.218674 
	C17.147903,79.483749 17.074505,79.051247 16.870953,78.314362 
	C16.429590,77.535545 16.159370,77.046211 16.252155,76.181969 
	C16.406475,75.505730 16.483377,75.100563 16.443855,74.402901 
	C16.167223,73.552910 16.159111,73.005386 16.576637,72.233566 
	C16.846176,71.607079 16.973515,71.223434 17.096210,70.535416 
	C17.613556,69.345871 17.402699,68.127594 18.579975,67.217125 
	C19.817450,66.008492 20.835012,65.023048 22.018261,63.784740 
	C22.327436,62.764156 22.950851,62.212624 23.192997,61.178776 
	C23.335543,59.999432 23.404097,59.097336 23.298735,57.898106 
	C23.091555,57.034897 23.638916,56.483765 23.199715,55.604492 
	C23.598032,55.204220 23.773962,54.965336 23.699097,54.356739 
	C23.081270,53.168522 21.872284,52.972137 21.175884,51.777996 
	C16.525305,46.236401 15.007909,40.470104 18.415691,34.071648 
	C21.005922,29.208227 26.938269,25.780191 32.224033,27.370155 
	C36.798512,28.746161 39.848927,27.383163 43.456837,25.229111 
	C46.028225,23.693901 47.831848,22.437910 48.239754,19.087591 
	C48.697441,15.328418 51.401070,12.619974 54.842678,10.362019 
	C55.641121,9.345459 56.319427,8.723236 57.674583,8.802164 
	C58.755596,8.929065 59.510651,8.923967 60.629425,8.809580 
	C65.594696,6.857565 68.904457,8.686289 71.748627,12.769295 
	C71.952179,13.456534 72.077049,13.731732 72.546768,14.021868 
	C73.525856,14.411311 74.590439,14.745249 74.712639,15.458716 
	C75.568794,20.457617 79.600479,22.787870 83.057571,26.000841 
	C83.354416,26.594427 83.608826,26.836641 84.130386,27.134129 
	C85.442696,27.389235 86.486855,27.607521 87.858971,27.470512 
	C90.753700,27.054972 93.353882,26.834471 96.406563,27.440411 
	C103.206268,30.361971 106.773705,35.028709 106.433823,42.654171 
	C107.543922,43.178368 107.301094,43.993073 107.266968,45.025864 
	C106.938210,46.554531 106.468666,47.650051 105.752510,49.021675 
	C102.894539,51.814793 100.551422,54.455608 101.351685,58.846344 
	C100.894829,59.853912 100.422394,60.533806 100.860123,61.658710 
	C101.741257,63.226395 103.187523,64.002693 103.642105,65.834396 
	C104.344177,67.591087 105.057076,69.020004 105.959274,70.734505 
	C106.407265,71.371651 106.638771,71.740280 106.763382,72.443130 
z"/>
<path fill="#F9FAFA" opacity="1.000000" stroke="none" 
	d="
M88.265182,88.667458 
	C89.961441,88.743454 91.132812,88.828751 92.652847,89.000381 
	C91.168579,92.143425 88.541512,94.704163 88.029015,98.566650 
	C87.796265,100.320847 85.639915,100.250275 84.279411,99.922775 
	C81.877151,99.344505 79.803223,99.978104 77.354317,100.962471 
	C75.439247,98.854500 76.638519,97.413445 78.536392,95.929382 
	C79.191986,95.494934 79.905823,96.014198 79.914391,95.059464 
	C79.541428,94.603905 79.367538,94.310814 79.056946,93.791275 
	C79.214546,93.368965 79.544197,93.151718 80.173073,92.892654 
	C82.816284,92.281998 85.079369,91.575676 86.563133,89.002335 
	C86.684898,88.666504 86.893806,88.658684 86.792343,88.683746 
	C87.040680,88.698120 87.390495,88.687439 88.265182,88.667458 
z"/>
<path fill="#F9FAFA" opacity="1.000000" stroke="none" 
	d="
M83.499115,26.210094 
	C76.920479,24.955908 74.561592,20.224245 72.887405,14.441744 
	C76.034760,12.597950 77.916466,13.792071 79.080368,17.046618 
	C79.787483,19.023867 80.660789,21.064440 83.468987,21.041824 
	C85.265625,21.027357 87.569023,21.270159 87.665474,23.508194 
	C87.753647,25.554346 85.071266,25.024927 83.499115,26.210094 
z"/>
<path fill="#262626" opacity="1.000000" stroke="none" 
	d="
M88.345596,148.758621 
	C84.415901,150.345703 82.274712,149.169235 82.860970,145.013245 
	C83.264809,142.150375 81.584572,139.624344 82.016624,136.870071 
	C82.208305,135.648102 80.963158,133.570999 83.485016,133.462311 
	C85.605270,133.370926 84.917229,135.186081 85.110817,136.347992 
	C85.259171,137.238342 85.960060,137.186859 86.960220,137.256439 
	C89.363167,137.744186 88.355812,139.002319 87.828995,139.863083 
	C87.035896,141.158936 86.258873,142.396240 86.436600,144.292877 
	C86.615982,144.991135 86.795990,145.357895 87.240715,145.933502 
	C88.100624,146.795715 88.632889,147.476059 88.345596,148.758621 
z"/>
<path fill="#161616" opacity="1.000000" stroke="none" 
	d="
M19.077591,147.759705 
	C19.046144,145.613693 19.014631,143.948425 19.045547,142.284348 
	C19.118647,138.349899 20.212194,133.763641 13.667298,133.562149 
	C17.988049,133.562149 22.308800,133.562149 26.685963,133.562149 
	C26.610104,134.009460 26.545231,134.571030 26.510883,134.569168 
	C21.190910,134.280930 20.605310,137.458572 21.085981,141.678207 
	C21.329102,143.812485 21.319601,146.032837 21.009432,148.153595 
	C20.786058,149.680878 19.808294,149.331757 19.077591,147.759705 
z"/>
<path fill="#0E0E0E" opacity="1.000000" stroke="none" 
	d="
M29.107216,148.395538 
	C26.082933,147.081314 24.638014,145.277878 25.457514,141.624359 
	C26.293903,137.895523 28.938148,137.376633 31.562645,137.322189 
	C34.476528,137.261749 37.035797,138.584183 37.118816,142.617584 
	C36.833103,145.645187 34.618397,144.850510 33.044983,145.231796 
	C31.781324,145.538010 29.914736,144.561188 29.580875,147.198761 
	C29.496189,147.747070 29.430229,147.962082 29.107216,148.395538 
z"/>
<path fill="#F9FAFA" opacity="1.000000" stroke="none" 
	d="
M71.965973,12.682518 
	C68.905418,10.885584 65.824173,8.731474 61.387318,8.790699 
	C62.796062,4.295856 67.140419,5.130046 70.072304,5.516598 
	C73.326408,5.945633 71.585846,9.842468 71.965973,12.682518 
z"/>
<path fill="#3D3D3D" opacity="1.000000" stroke="none" 
	d="
M38.875214,144.330933 
	C39.199013,143.557297 39.274162,143.070221 39.290478,142.581161 
	C39.482151,136.837021 39.479828,136.836945 45.967667,138.578705 
	C45.839069,139.180756 45.695389,139.365662 45.203125,139.593811 
	C40.397251,140.522064 42.266365,144.095795 41.855217,146.699020 
	C41.695789,147.708420 42.218582,149.263763 40.404781,149.090225 
	C39.053158,148.960876 39.468204,147.659149 39.269772,146.364380 
	C38.693062,145.642044 38.499165,145.192764 38.875214,144.330933 
z"/>
<path fill="#F6F8F8" opacity="1.000000" stroke="none" 
	d="
M85.399559,146.294342 
	C84.731522,142.949402 84.481369,139.950256 87.457314,137.586273 
	C87.973434,137.204422 88.617249,137.171082 89.740677,137.200653 
	C90.867371,138.355377 90.434196,139.346893 89.751106,140.590652 
	C88.726196,141.734650 89.715240,141.718018 90.357513,142.250122 
	C91.158447,144.472076 91.228851,146.422546 90.281372,148.670166 
	C89.645439,148.997345 89.231674,149.015961 88.507492,149.046417 
	C88.380272,147.829193 87.868896,147.280716 86.315727,147.269501 
	C85.867119,146.915359 85.725868,146.743607 85.399559,146.294342 
z"/>
<path fill="#1F1F1F" opacity="1.000000" stroke="none" 
	d="
M55.884605,138.266968 
	C59.976463,137.367615 64.198372,135.579849 66.002914,141.673309 
	C66.206177,142.807358 66.320526,143.590591 66.159332,144.675995 
	C65.576614,146.588715 67.509644,150.908722 62.403000,148.022491 
	C61.343773,146.772858 62.394020,145.707703 62.395142,144.227478 
	C62.424576,143.340454 62.462082,142.750580 62.319931,141.883224 
	C61.105679,140.257172 59.610432,140.534363 58.130768,140.567535 
	C56.770882,140.598053 55.381248,140.479767 55.884605,138.266968 
z"/>
<path fill="#181818" opacity="1.000000" stroke="none" 
	d="
M70.932541,137.652283 
	C71.944565,138.682281 72.876595,137.782593 73.735657,137.534836 
	C77.171112,136.544098 78.931435,137.999191 79.020248,141.378738 
	C79.088081,143.960068 79.486954,146.611954 78.500687,149.558472 
	C75.908264,147.658432 77.146385,145.214905 76.963837,143.198151 
	C76.726051,140.571121 76.525032,138.258987 72.480232,139.989273 
	C71.883957,140.033630 71.728622,139.938385 71.406288,139.625916 
	C71.152626,139.247452 71.065956,139.086197 70.886490,138.665863 
	C70.778824,138.223770 70.763947,138.040756 70.932541,137.652283 
z"/>
<path fill="#262626" opacity="1.000000" stroke="none" 
	d="
M71.674858,138.624847 
	C71.925453,139.018433 71.948540,139.240494 72.005455,139.795715 
	C71.692497,140.876984 71.345711,141.625076 71.052368,142.684662 
	C71.401276,143.407623 71.524521,143.865463 71.287704,144.686691 
	C70.468758,146.301285 71.555092,148.019318 69.864601,149.348663 
	C68.047073,148.612762 69.024132,146.892334 68.626785,145.298111 
	C66.958946,144.271454 67.988014,143.306427 68.362152,142.169403 
	C69.626129,140.723419 66.918816,137.756989 70.785324,137.577393 
	C71.116013,137.446823 71.049797,137.462372 71.022011,137.442764 
	C71.069679,137.799805 71.220673,138.143219 71.674858,138.624847 
z"/>
<path fill="#F6F6F6" opacity="1.000000" stroke="none" 
	d="
M55.873512,138.107300 
	C55.986641,139.287277 55.818661,140.520065 57.780338,139.702301 
	C60.026115,138.766098 62.163715,138.447830 63.727619,141.356659 
	C61.961586,143.869461 59.396317,143.236160 56.633415,143.219086 
	C54.503807,143.039932 52.853508,142.810135 51.827518,140.592865 
	C51.769901,140.019989 51.872025,139.838135 52.227371,139.472168 
	C52.862534,139.113922 53.261921,139.009094 53.992538,138.993927 
	C54.742355,138.724136 55.181427,138.446106 55.873512,138.107300 
z"/>
<path fill="#E8E8E8" opacity="1.000000" stroke="none" 
	d="
M38.887848,143.950104 
	C39.238335,144.476166 39.325474,144.907013 39.296852,145.651108 
	C38.614407,145.988495 38.047733,146.012650 37.058090,146.083069 
	C35.632633,147.052109 34.330704,147.510880 32.938309,148.462296 
	C31.368153,149.057983 30.332483,148.701035 29.221519,147.481064 
	C28.398655,146.226730 27.818804,145.228638 26.966690,143.761902 
	C30.681847,143.761902 33.727856,143.761902 36.977726,143.378693 
	C37.662556,143.281967 38.143528,143.568451 38.887848,143.950104 
z"/>
<path fill="#171717" opacity="1.000000" stroke="none" 
	d="
M51.911278,139.431335 
	C51.897717,139.769135 51.758419,139.972549 51.713100,140.087189 
	C48.658836,142.364212 50.605553,145.519272 50.043331,148.612091 
	C49.614807,149.398895 49.149921,149.535721 48.301956,149.254639 
	C47.961201,146.664963 47.940228,144.278061 47.848980,141.449951 
	C47.419224,140.506622 47.239124,139.965912 47.597809,139.109497 
	C48.065044,138.340607 48.246635,137.482727 48.667309,137.342590 
	C49.724022,136.990585 49.835476,138.126434 50.542110,138.813416 
	C51.254223,138.620926 51.623955,138.673279 51.911278,139.431335 
z"/>
<path fill="#3E3E3E" opacity="1.000000" stroke="none" 
	d="
M56.116547,143.389465 
	C58.222725,141.019974 60.791527,142.372391 63.435966,141.786743 
	C63.660870,142.211182 63.490284,142.740646 63.182087,143.519470 
	C61.691109,145.265167 59.307247,145.997086 59.248623,148.863678 
	C58.369144,149.038116 57.696507,148.956100 56.690041,148.800934 
	C56.217693,148.840927 56.079174,148.954056 56.111137,148.860046 
	C55.584969,147.038513 54.408875,145.452927 56.116547,143.389465 
z"/>
<path fill="#F6F8F8" opacity="1.000000" stroke="none" 
	d="
M78.572319,93.643829 
	C79.402458,93.837128 79.920029,94.088043 80.718613,94.668877 
	C80.934113,95.345551 80.758675,95.626312 80.243149,95.924515 
	C78.292320,96.936089 76.955193,98.130119 77.002197,100.644310 
	C75.811150,101.298012 74.623520,101.598770 73.065559,101.890121 
	C74.952126,99.427826 73.707268,94.592613 78.572319,93.643829 
z"/>
<path fill="#232323" opacity="1.000000" stroke="none" 
	d="
M90.382629,149.081024 
	C90.052414,146.847092 90.045631,144.715439 89.885956,142.222809 
	C89.481010,141.868118 89.228951,141.874405 89.351807,141.830887 
	C89.868088,140.528442 90.009460,139.275803 90.185562,137.643356 
	C90.220299,137.263565 90.171211,137.243759 90.188889,137.254639 
	C90.428680,136.741028 90.822327,136.514236 91.684692,136.817963 
	C93.029022,140.805603 92.353310,144.634537 92.263168,148.870651 
	C91.604881,149.269135 91.155479,149.226227 90.382629,149.081024 
z"/>
<path fill="#D9D9D9" opacity="1.000000" stroke="none" 
	d="
M59.213531,149.392212 
	C57.375259,145.751877 56.771599,143.001358 62.606937,143.753922 
	C64.690369,145.577469 63.006363,146.379089 61.974167,147.699677 
	C61.771538,149.604630 61.074730,150.425293 59.213531,149.392212 
z"/>
<path fill="#F6F8F8" opacity="1.000000" stroke="none" 
	d="
M43.287437,92.981949 
	C45.564281,93.542099 48.265793,93.937279 48.201424,97.609688 
	C45.864643,97.162193 43.810478,96.034157 43.287437,92.981949 
z"/>
<path fill="#F6F8F8" opacity="1.000000" stroke="none" 
	d="
M53.125168,104.947327 
	C54.315220,105.076309 55.463840,105.615097 56.864853,106.341248 
	C56.931873,107.697166 56.763859,109.011719 55.140862,108.750504 
	C53.253563,108.446754 53.011631,106.951591 53.125168,104.947327 
z"/>
<path fill="#F6F8F8" opacity="1.000000" stroke="none" 
	d="
M37.294296,89.007706 
	C39.217369,89.790413 41.055847,90.957863 43.112373,92.369553 
	C40.294594,93.431686 37.968613,92.900841 37.294296,89.007706 
z"/>
<path fill="#F6F6F6" opacity="1.000000" stroke="none" 
	d="
M68.099541,141.920761 
	C68.566612,142.737839 68.636177,143.578552 68.622940,144.662109 
	C68.004181,144.929306 67.468201,144.953674 66.529709,144.973999 
	C66.062660,144.144638 65.998131,143.319321 66.022774,142.258728 
	C66.641975,141.997101 67.172005,141.970749 68.099541,141.920761 
z"/>
<path fill="#1C1C1C" opacity="1.000000" stroke="none" 
	d="
M28.936333,147.571198 
	C30.012630,147.400574 31.046755,147.576324 32.400352,147.771072 
	C33.223892,147.573334 33.644615,147.667725 33.961128,148.498734 
	C32.415607,149.465881 30.858938,149.321106 29.073887,148.801147 
	C28.864830,148.381851 28.879494,148.149704 28.936333,147.571198 
z"/>
<path fill="#292929" opacity="1.000000" stroke="none" 
	d="
M92.075226,132.260986 
	C92.369537,133.101898 92.356308,133.887283 92.173019,134.918457 
	C91.558662,135.457779 91.080353,135.531876 90.320747,135.100769 
	C90.117363,133.606995 89.710487,132.106323 92.075226,132.260986 
z"/>
<path fill="#F6F8F8" opacity="1.000000" stroke="none" 
	d="
M68.942955,105.588837 
	C69.673424,104.502579 70.531082,103.759003 71.660858,102.924789 
	C71.729103,104.560188 72.539558,107.223740 68.942955,105.588837 
z"/>
<path fill="#464646" opacity="1.000000" stroke="none" 
	d="
M34.254936,148.849579 
	C33.709850,148.599564 33.465694,148.326172 32.970680,147.921417 
	C33.715107,147.022415 34.525528,145.911163 36.315712,146.078308 
	C36.609039,147.542542 35.551540,148.160553 34.254936,148.849579 
z"/>
<path fill="#424242" opacity="1.000000" stroke="none" 
	d="
M52.205482,139.695679 
	C51.786781,139.447525 51.576809,139.215591 51.046284,138.980484 
	C51.800549,137.655777 52.712105,136.045090 54.291313,138.652100 
	C53.706604,139.208862 53.109924,139.415543 52.205482,139.695679 
z"/>
<path fill="#F9FAFA" opacity="1.000000" stroke="none" 
	d="
M57.951561,8.622603 
	C57.229198,9.309528 56.457855,9.684896 55.363380,10.076776 
	C55.496220,8.699177 55.191200,6.082898 57.951561,8.622603 
z"/>
<path fill="#F6F6F6" opacity="1.000000" stroke="none" 
	d="
M47.326729,138.903900 
	C47.832127,139.409576 47.889637,139.947418 47.862926,140.746994 
	C46.850651,140.975662 45.892792,141.044250 45.021320,139.943176 
	C45.011482,139.359833 45.246540,139.191986 45.771236,139.064667 
	C46.281448,138.975922 46.580147,138.955994 47.326729,138.903900 
z"/>
<path fill="#F6F8F8" opacity="1.000000" stroke="none" 
	d="
M16.003370,75.955124 
	C16.503685,76.428452 16.677794,76.946007 16.796349,77.736771 
	C15.895213,77.908928 14.782440,78.221031 14.499052,77.070854 
	C14.320647,76.346779 15.101770,76.169037 16.003370,75.955124 
z"/>
<path fill="#F6F8F8" opacity="1.000000" stroke="none" 
	d="
M21.115612,51.895683 
	C21.997751,52.170067 22.893583,52.872547 23.714422,53.851303 
	C22.467791,53.992390 21.370373,53.753925 21.115612,51.895683 
z"/>
<path fill="#F6F6F6" opacity="1.000000" stroke="none" 
	d="
M56.289223,148.757233 
	C55.991646,149.411255 56.019176,150.418610 54.926811,150.494507 
	C54.814804,150.502304 54.603970,150.310181 54.581360,150.185089 
	C54.427776,149.335419 55.071037,149.121628 55.976734,148.768738 
	C56.281616,148.652908 56.222237,148.786667 56.289223,148.757233 
z"/>
<path fill="#F6F6F6" opacity="1.000000" stroke="none" 
	d="
M48.019211,149.346970 
	C48.436481,149.104233 48.890789,149.156601 49.680756,149.128006 
	C49.695351,150.340118 49.381283,151.656265 48.019211,149.346970 
z"/>
<path fill="#F9FAFA" opacity="1.000000" stroke="none" 
	d="
M88.000252,27.273220 
	C87.091530,28.305450 86.000587,28.681322 84.615555,27.483761 
	C85.554901,27.273535 86.638016,26.212488 88.000252,27.273220 
z"/>
<path fill="#F6F8F8" opacity="1.000000" stroke="none" 
	d="
M22.952717,61.122887 
	C23.967453,61.904583 23.639868,62.678787 22.455963,63.427395 
	C22.335447,62.802658 22.486944,62.073452 22.952717,61.122887 
z"/>
<path fill="#F6F6F6" opacity="1.000000" stroke="none" 
	d="
M71.386658,144.960968 
	C71.039185,144.554169 70.978493,144.104614 71.011810,143.325607 
	C71.744408,143.093353 72.501762,143.160034 72.533325,143.960892 
	C72.545441,144.268234 71.977219,144.598450 71.386658,144.960968 
z"/>
<path fill="#F6F8F8" opacity="1.000000" stroke="none" 
	d="
M18.457079,67.068817 
	C18.392818,67.942604 17.985746,68.891273 17.335121,70.035492 
	C17.062204,69.079277 16.700869,67.817543 18.457079,67.068817 
z"/>
<path fill="#F6F8F8" opacity="1.000000" stroke="none" 
	d="
M16.960365,80.079437 
	C17.518446,80.396118 17.815592,80.875969 18.137718,81.645493 
	C17.203827,81.778275 15.808259,81.998932 16.960365,80.079437 
z"/>
<path fill="#F6F8F8" opacity="1.000000" stroke="none" 
	d="
M90.052353,135.224792 
	C90.499313,134.910599 90.925194,135.006210 91.677017,135.133026 
	C92.000000,135.583527 91.997032,136.002792 91.987999,136.736481 
	C91.588066,137.105713 91.194199,137.160538 90.503448,137.240433 
	C90.148132,136.721878 90.089691,136.178253 90.052353,135.224792 
z"/>
<path fill="#F6F8F8" opacity="1.000000" stroke="none" 
	d="
M16.430275,72.047478 
	C16.693563,72.543198 16.668291,73.095688 16.485224,73.879288 
	C15.254801,73.535248 14.798358,72.903053 16.430275,72.047478 
z"/>
<path fill="#F6F8F8" opacity="1.000000" stroke="none" 
	d="
M60.214905,107.398773 
	C60.762627,107.133354 61.505920,107.084602 62.616325,107.101990 
	C62.253624,108.052574 61.388767,108.160233 60.214905,107.398773 
z"/>
<path fill="#F6F8F8" opacity="1.000000" stroke="none" 
	d="
M34.749531,88.754623 
	C34.984623,87.887375 35.879742,87.720367 37.116638,88.332298 
	C36.651379,88.692352 35.959335,88.767799 34.749531,88.754623 
z"/>
<path fill="#F6F8F8" opacity="1.000000" stroke="none" 
	d="
M51.183754,103.066605 
	C51.399265,102.986580 51.723797,103.179298 52.171448,103.631500 
	C51.960632,103.707100 51.626705,103.523224 51.183754,103.066605 
z"/>
<path fill="#F6F8F8" opacity="1.000000" stroke="none" 
	d="
M66.574486,106.684326 
	C66.585350,106.411140 66.967705,106.154121 67.700256,105.837936 
	C67.682297,106.086014 67.314140,106.393257 66.574486,106.684326 
z"/>
<path fill="#F6F8F8" opacity="1.000000" stroke="none" 
	d="
M23.174105,55.875763 
	C23.341364,55.901569 23.451746,56.500576 23.343475,57.350281 
	C23.122288,57.216972 23.119759,56.832966 23.174105,55.875763 
z"/>
<path fill="#F6F8F8" opacity="1.000000" stroke="none" 
	d="
M25.226870,88.245689 
	C25.429073,88.064430 25.859482,88.134735 26.531773,88.432358 
	C26.334127,88.605530 25.894602,88.551392 25.226870,88.245689 
z"/>
<path fill="#F7F7F7" opacity="1.000000" stroke="none" 
	d="
M106.306625,45.247547 
	C106.140411,44.499119 106.175606,43.995422 106.342194,43.273266 
	C109.613716,42.672421 113.231125,41.208683 113.899612,46.372997 
	C114.823944,53.513775 112.307747,57.662880 106.417343,57.999725 
	C103.313965,55.643284 103.313965,55.643284 105.689911,50.100079 
	C106.165176,48.371445 107.427063,47.099850 106.306625,45.247547 
z"/>
<path fill="#F6F8F8" opacity="1.000000" stroke="none" 
	d="
M106.585724,48.761719 
	C107.501633,52.022354 103.483727,54.220295 105.724457,57.754234 
	C105.922356,60.689865 106.514198,63.525723 103.970749,65.957291 
	C102.348213,65.117790 100.939087,64.192154 100.136864,62.290897 
	C99.398758,61.306599 99.524422,60.475018 99.853539,59.343403 
	C100.390579,55.386250 99.639572,51.361961 104.052605,48.970253 
	C104.902107,48.519520 105.525948,48.438126 106.585724,48.761719 
z"/>
<path fill="#F6F8F8" opacity="1.000000" stroke="none" 
	d="
M96.690292,88.793587 
	C100.879036,86.554199 104.661232,83.596840 106.238815,78.101349 
	C111.653717,75.900978 110.753998,81.229156 112.852219,83.617569 
	C112.785240,86.073311 111.250420,86.026390 109.756111,85.991661 
	C108.110512,85.953430 106.040413,85.751915 105.188866,87.098030 
	C102.969460,90.606384 100.080956,89.559753 96.690292,88.793587 
z"/>
<path fill="#131313" opacity="1.000000" stroke="none" 
	d="
M104.391716,149.034286 
	C100.542068,150.147766 96.989357,150.278458 95.351288,146.545517 
	C93.903694,143.246674 94.283379,139.730057 98.622292,137.741562 
	C100.040092,137.102417 101.118477,136.960678 102.622780,137.547852 
	C103.770882,138.312866 104.544662,138.884659 105.340736,139.472916 
	C104.713303,140.790863 103.778061,140.471481 102.925751,139.934097 
	C100.921867,138.670609 99.106468,138.873596 97.755768,140.779816 
	C96.497932,142.554962 96.563263,144.507477 97.946609,146.254578 
	C99.745689,148.526703 101.546158,147.796036 103.383842,146.216934 
	C103.636429,145.999878 104.296486,146.256989 104.961761,146.646133 
	C105.619408,147.790024 105.465134,148.470581 104.391716,149.034286 
z"/>
<path fill="#F7F7F7" opacity="1.000000" stroke="none" 
	d="
M113.272690,83.762268 
	C110.950172,84.140488 109.838379,83.309921 109.996330,81.129929 
	C110.139626,79.152107 109.393021,77.918236 106.796196,77.848885 
	C106.383934,76.469894 106.407913,75.148499 106.498604,73.435669 
	C109.312325,72.781990 111.107674,73.648216 111.023613,76.776520 
	C110.954124,79.362679 115.577507,80.200493 113.272690,83.762268 
z"/>
<path fill="#F7F7F7" opacity="1.000000" stroke="none" 
	d="
M109.721588,38.006527 
	C109.388229,37.111698 109.009758,36.327343 109.254143,35.895367 
	C109.975754,34.619854 109.377235,32.279282 111.693901,32.261974 
	C113.053490,32.251816 113.759270,33.776360 113.590019,34.686069 
	C113.248802,36.520004 113.329124,39.306255 109.721588,38.006527 
z"/>
<path fill="#F7F7F7" opacity="1.000000" stroke="none" 
	d="
M104.038818,149.362579 
	C104.327049,148.528442 104.654068,148.044037 105.068359,147.278656 
	C106.516418,147.192596 108.308449,146.438110 108.850250,148.500397 
	C109.190819,149.796722 108.531471,150.671280 107.369041,151.276688 
	C105.538216,152.230255 104.602310,151.436966 104.038818,149.362579 
z"/>
<path fill="#FDFDFD" opacity="1.000000" stroke="none" 
	d="
M102.921051,137.425537 
	C101.921204,137.806961 100.845291,137.872849 99.385918,137.802979 
	C99.973206,135.343262 101.305534,135.512512 102.921051,137.425537 
z"/>
<path fill="#F7F7F7" opacity="1.000000" stroke="none" 
	d="
M112.388916,19.463299 
	C111.580254,19.693211 111.289642,19.408775 111.412460,18.782459 
	C111.438034,18.652069 111.622231,18.476105 111.753769,18.456194 
	C112.387070,18.360323 112.653076,18.667873 112.388916,19.463299 
z"/>
<path fill="#F6F8F8" opacity="1.000000" stroke="none" 
	d="
M106.726196,72.438049 
	C106.487389,72.394112 106.291252,72.027863 106.121849,71.340851 
	C106.355347,71.385315 106.562119,71.750526 106.726196,72.438049 
z"/>
<path fill="#F2F9F9" opacity="1.000000" stroke="none" 
	d="
M71.447105,83.531570 
	C63.023033,76.898514 54.657673,78.122803 49.275764,86.972778 
	C47.425922,90.014648 46.094769,88.400864 44.685734,87.344345 
	C43.178547,86.214241 39.979534,86.249573 42.031181,82.447937 
	C47.510353,72.295227 42.680042,62.921139 31.277636,61.197968 
	C29.047054,60.860874 28.540352,60.181065 28.606266,58.148262 
	C28.673454,56.076130 29.000626,55.095016 31.531929,54.710987 
	C42.303463,53.076817 46.858150,44.857628 42.613949,34.555294 
	C41.212181,31.152657 43.741238,30.978420 45.287182,29.872911 
	C46.918877,28.706079 48.167736,27.812450 50.077835,30.307453 
	C56.827259,39.123627 66.560699,38.908436 73.271286,29.794106 
	C75.515808,26.745584 76.941856,29.028301 78.568764,29.814066 
	C80.169655,30.587271 82.160568,30.981434 80.677971,34.070553 
	C75.714096,44.413242 81.132431,53.839302 92.440872,54.785015 
	C94.910851,54.991577 95.476883,55.728901 95.488708,57.996742 
	C95.500710,60.296467 94.850769,60.963379 92.430656,61.199802 
	C80.836716,62.332428 75.068199,72.784950 81.025291,82.322052 
	C83.341049,86.029495 80.737732,86.458893 78.906525,87.740456 
	C76.865547,89.168816 74.830215,90.267746 73.670753,86.656876 
	C73.332184,85.602478 72.379585,84.745247 71.447105,83.531570 
z"/>
<path fill="#EEF3F5" opacity="1.000000" stroke="none" 
	d="
M87.029022,68.846954 
	C91.045013,65.889603 94.783485,65.956146 98.192886,68.995972 
	C101.102661,71.590302 101.780197,74.912582 100.022171,78.467621 
	C98.294449,81.961349 95.376961,83.381340 91.471817,83.136513 
	C86.260078,82.809776 81.001411,74.930962 87.029022,68.846954 
z"/>
<path fill="#EFF6F8" opacity="1.000000" stroke="none" 
	d="
M29.279310,32.831211 
	C35.260395,33.138554 38.563698,35.958771 38.800472,40.573341 
	C39.006378,44.586327 35.890644,48.447834 31.928612,49.090015 
	C27.637766,49.785492 23.570543,47.162968 22.407015,42.950535 
	C21.221996,38.660294 23.519413,35.075626 29.279310,32.831211 
z"/>
<path fill="#EFF4F7" opacity="1.000000" stroke="none" 
	d="
M84.873169,43.963066 
	C83.468651,38.905788 85.107521,35.237255 89.423126,33.381340 
	C93.022171,31.833576 96.621384,32.590263 99.175636,35.999477 
	C102.012665,39.786125 101.335579,44.588776 97.601517,47.455193 
	C93.471588,50.625492 88.777985,49.452126 84.873169,43.963066 
z"/>
<path fill="#F1F7F8" opacity="1.000000" stroke="none" 
	d="
M28.491760,66.989670 
	C34.823322,66.812416 38.345245,69.424950 38.782261,74.251007 
	C39.135490,78.151794 36.056160,82.278946 32.233578,83.028030 
	C27.946482,83.868141 23.836243,81.419304 22.515091,77.237854 
	C21.228615,73.166161 23.142824,69.674133 28.491760,66.989670 
z"/>
<path fill="#F1F6F8" opacity="1.000000" stroke="none" 
	d="
M67.243675,16.784252 
	C70.172157,20.185577 70.738647,23.626120 68.466934,27.112091 
	C66.511681,30.112463 63.589592,31.705889 59.930573,30.847240 
	C56.426414,30.024933 54.070538,27.761713 53.406345,24.128050 
	C52.779232,20.697241 54.083073,17.862251 56.896122,15.950188 
	C60.300419,13.636245 63.746578,13.995421 67.243675,16.784252 
z"/>
<path fill="#F0F6F7" opacity="1.000000" stroke="none" 
	d="
M54.195553,89.419197 
	C58.115608,84.851944 61.880257,83.761574 65.567009,86.051529 
	C68.985527,88.174873 70.603569,91.264450 69.489937,95.318192 
	C68.247513,99.840714 63.952839,102.255783 59.456505,101.117775 
	C54.602764,99.889297 52.506916,95.500305 54.195553,89.419197 
z"/>
<path fill="#F6F8F8" opacity="1.000000" stroke="none" 
	d="
M86.368126,88.775635 
	C86.854790,92.549728 84.339661,93.053635 80.897758,92.888718 
	C82.331985,91.528809 84.191666,90.206795 86.368126,88.775635 
z"/>
<path fill="#F9FAFA" opacity="1.000000" stroke="none" 
	d="
M107.261902,48.783226 
	C106.398689,48.963913 105.797379,48.927063 104.748016,48.828621 
	C104.767273,47.702778 105.234573,46.638523 105.903542,45.288544 
	C108.431671,45.452415 108.222748,46.911499 107.261902,48.783226 
z"/>
<path fill="#002427" opacity="1.000000" stroke="none" 
	d="
M99.845955,59.184418 
	C100.160637,59.778751 100.196602,60.526661 100.124451,61.637596 
	C98.900375,61.276062 98.763908,60.386288 99.845955,59.184418 
z"/>
<path fill="#F6F8F8" opacity="1.000000" stroke="none" 
	d="
M88.568726,88.420906 
	C88.441322,88.701530 88.092590,88.744919 87.217361,88.748550 
	C87.088699,88.046867 87.676346,87.983742 88.568726,88.420906 
z"/>
<path fill="#FDFDFD" opacity="1.000000" stroke="none" 
	d="
M80.040123,96.301437 
	C80.101120,95.676941 80.289268,95.416290 80.780930,95.107841 
	C81.861404,95.680908 82.369583,96.558853 81.400406,97.389061 
	C80.791290,97.910843 80.286995,97.283577 80.040123,96.301437 
z"/>
<path fill="#F6F6F6" opacity="1.000000" stroke="none" 
	d="
M85.172684,146.296036 
	C85.496315,146.161148 85.710655,146.373535 85.932953,146.870575 
	C85.715866,146.916489 85.423370,146.745865 85.172684,146.296036 
z"/>
<path fill="#D6D6D6" opacity="1.000000" stroke="none" 
	d="
M28.409849,140.380798 
	C29.649420,138.967468 30.928585,138.875168 32.261574,138.983810 
	C33.687424,139.100021 34.851677,139.671112 34.953171,141.243240 
	C35.097263,143.475235 33.316708,142.732803 32.196388,142.792587 
	C30.743181,142.870163 29.165485,143.079514 27.850166,142.626266 
	C26.348993,142.108963 27.252544,141.230774 28.409849,140.380798 
z"/>
<path fill="#F6F6F6" opacity="1.000000" stroke="none" 
	d="
M89.550797,141.594971 
	C89.726723,141.781097 89.677338,141.806885 89.705200,141.834351 
	C89.450340,141.717148 89.167610,141.572464 88.884888,141.427765 
	C89.048210,141.421448 89.211540,141.415146 89.550797,141.594971 
z"/>
<path fill="#FDFDFD" opacity="1.000000" stroke="none" 
	d="
M72.047058,138.422531 
	C71.515541,138.564285 71.128716,138.332199 70.868057,137.761642 
	C71.609528,137.217926 72.009033,137.425812 72.047058,138.422531 
z"/>
<path fill="#E5FBFD" opacity="1.000000" stroke="none" 
	d="
M70.715431,46.258385 
	C74.980263,46.928406 73.392586,50.924995 74.973724,53.571766 
	C74.117104,55.160301 72.648521,55.126846 71.120483,55.758629 
	C67.816872,59.727798 71.600502,60.164715 73.795784,61.755661 
	C73.617867,64.043816 72.735466,65.968201 72.964653,68.122810 
	C73.138519,69.757362 72.603592,70.989052 70.230003,70.947906 
	C69.543541,70.353363 69.616112,69.742096 69.729141,68.833740 
	C69.814598,67.963211 69.857773,67.389153 69.700310,66.550087 
	C69.557327,66.120872 69.487640,65.955788 69.278168,65.567032 
	C69.017067,65.212196 68.895744,65.081032 68.282700,64.685173 
	C67.205284,64.286278 66.626617,64.306870 65.787430,64.643204 
	C65.179787,65.012314 64.854271,65.255821 64.339302,65.751343 
	C62.877563,67.281929 63.958950,68.895836 63.394955,70.602570 
	C62.026741,70.912407 60.816013,70.929573 59.152824,70.905067 
	C58.570446,70.227150 58.782101,69.654732 59.146439,68.811195 
	C59.461922,67.966522 59.565224,67.397751 59.141212,66.558006 
	C58.344345,65.425232 57.530598,64.743011 56.412350,63.911331 
	C55.664684,63.822578 56.063419,62.375591 54.880760,63.257896 
	C54.359314,63.308750 54.146423,63.258137 53.715622,62.958694 
	C53.315857,62.303307 53.208084,61.877342 53.169060,61.103836 
	C53.897633,58.542969 52.871876,56.520424 52.448608,54.091232 
	C52.625538,53.314884 52.875008,52.940891 53.501411,52.441319 
	C55.490822,51.681278 57.340237,51.484196 59.051361,50.049438 
	C60.279007,49.164974 61.164238,48.331402 62.803329,48.611588 
	C67.062744,52.830719 68.098595,52.514370 70.715431,46.258385 
z"/>
<path fill="#309AB7" opacity="1.000000" stroke="none" 
	d="
M53.714615,63.183746 
	C54.026508,63.139122 54.515900,63.057487 54.752834,62.983978 
	C55.159042,62.815468 55.328316,62.720467 55.753258,62.764805 
	C57.695091,63.080219 58.759663,64.183052 59.894257,65.701859 
	C60.575329,66.709923 60.479961,67.526733 60.184174,68.660583 
	C59.607647,69.441284 59.277256,69.897453 58.823612,70.608505 
	C57.409115,71.016243 56.117863,71.169090 54.433613,71.269531 
	C53.847275,71.265915 53.653938,71.314697 53.245201,71.155975 
	C51.511547,69.054482 49.548092,67.224304 52.400352,64.463516 
	C52.777473,63.765537 53.031425,63.451477 53.714615,63.183746 
z"/>
<path fill="#2F9ABA" opacity="1.000000" stroke="none" 
	d="
M60.086590,50.585491 
	C58.380489,52.036140 57.078102,53.375469 54.666687,52.780792 
	C53.282539,52.654171 52.366596,52.332066 51.704826,50.976913 
	C51.498302,49.630215 51.494648,48.631714 51.771019,47.315536 
	C51.969326,46.997623 52.150959,46.712910 52.172470,46.545425 
	C52.227501,45.981766 52.394814,45.649899 52.935562,45.245407 
	C55.426414,43.353535 57.325424,44.600327 59.519806,45.958031 
	C61.229942,47.335644 60.638851,48.833557 60.086590,50.585491 
z"/>
<path fill="#2F9BB3" opacity="1.000000" stroke="none" 
	d="
M70.981339,46.017941 
	C71.641251,49.016338 71.560425,51.806812 67.999748,52.798817 
	C65.511787,53.491959 63.353840,52.985573 62.915436,49.418297 
	C62.332108,48.308094 62.260239,47.537224 62.962166,46.497849 
	C63.294430,46.261280 63.311024,46.153736 63.280109,46.198509 
	C63.270760,45.852844 63.449780,45.551037 64.033630,45.251144 
	C64.301811,45.176140 64.687531,45.026058 64.832916,44.878792 
	C66.357872,43.751373 67.780220,43.807785 69.607071,44.803131 
	C69.983017,45.050274 69.996620,44.997120 69.971909,45.009041 
	C70.207993,45.215618 70.441795,45.438572 70.816299,45.865273 
	C70.983986,46.040718 70.997498,46.012260 70.981339,46.017941 
z"/>
<path fill="#3299BB" opacity="1.000000" stroke="none" 
	d="
M52.533325,53.948730 
	C54.005653,56.120514 55.821224,57.815308 54.064728,60.626205 
	C52.802101,63.517818 50.718014,62.783516 48.393101,62.162174 
	C48.047047,61.902672 48.014374,61.983772 48.051521,61.960732 
	C47.799644,61.777409 47.549549,61.570145 47.201321,61.113216 
	C47.064251,60.910542 47.128956,60.915016 47.132439,60.882774 
	C46.975151,60.735214 46.814384,60.619896 46.686058,60.209587 
	C46.397163,58.604031 46.460968,57.321003 47.103325,55.695793 
	C47.261784,54.901531 47.462254,54.570648 48.093754,54.275402 
	C48.394409,54.235847 48.723545,54.177567 48.863533,54.086269 
	C50.033054,53.362225 51.122978,53.243042 52.533325,53.948730 
z"/>
<path fill="#3C96AB" opacity="1.000000" stroke="none" 
	d="
M74.247147,61.821541 
	C68.515686,61.478561 67.365807,59.851391 69.434250,54.918358 
	C69.922905,54.789898 70.129555,54.879375 70.526237,55.246246 
	C71.224083,56.415447 71.027611,57.877174 72.339630,58.098095 
	C73.569916,58.305248 73.658173,57.071827 74.133972,55.949455 
	C74.381248,55.452278 74.506630,55.266441 74.933792,54.932236 
	C75.534325,55.015575 75.833076,55.247284 76.273552,55.730869 
	C76.909454,57.054710 77.047173,58.145855 76.377388,59.635269 
	C75.601097,60.542309 75.039497,61.082973 74.247147,61.821541 
z"/>
<path fill="#4B9FB8" opacity="1.000000" stroke="none" 
	d="
M70.464630,68.771500 
	C70.491295,69.478790 70.262367,69.959496 69.927139,70.690407 
	C67.860802,71.995567 65.894165,71.833374 63.580605,70.933884 
	C63.153122,68.949127 60.129177,67.013695 63.583038,64.969818 
	C65.420700,66.284836 65.842514,69.157776 69.204025,68.384354 
	C69.766602,68.437035 69.987823,68.490974 70.464630,68.771500 
z"/>
<path fill="#E5FBFD" opacity="1.000000" stroke="none" 
	d="
M69.851562,44.719921 
	C68.595345,44.924339 67.207664,44.798405 65.399155,44.701996 
	C65.061066,43.614601 64.969131,42.402008 66.492409,42.111477 
	C68.360596,41.755165 69.025009,43.090996 69.851562,44.719921 
z"/>
<path fill="#B8EEF6" opacity="1.000000" stroke="none" 
	d="
M48.240898,62.219002 
	C49.832111,62.060863 51.657421,62.589680 53.620895,61.141075 
	C53.970951,61.435181 53.989006,61.921677 54.016785,62.773651 
	C53.715965,63.451469 53.405426,63.763817 52.877739,64.131004 
	C51.116524,63.982483 49.684448,63.492378 48.240898,62.219002 
z"/>
<path fill="#BAF1F7" opacity="1.000000" stroke="none" 
	d="
M62.991150,46.261299 
	C63.185261,46.960678 63.076096,47.660080 62.882179,48.704990 
	C61.556652,48.961433 61.090366,50.031441 60.054565,50.789978 
	C59.831676,49.567310 59.901730,48.242207 59.890083,46.523746 
	C60.761894,46.312870 61.699921,46.836018 62.991150,46.261299 
z"/>
<path fill="#BDF1F8" opacity="1.000000" stroke="none" 
	d="
M52.987274,53.973385 
	C51.786064,54.207901 50.775642,54.129169 49.384373,54.022705 
	C49.680077,53.206940 50.356628,52.418907 51.098545,51.316910 
	C51.346394,50.823097 51.528881,50.643242 52.040237,50.662266 
	C52.916401,51.342552 53.463696,51.823963 54.168476,52.530293 
	C53.943329,53.056850 53.560696,53.358490 52.987274,53.973385 
z"/>
<path fill="#E5FBFD" opacity="1.000000" stroke="none" 
	d="
M76.483887,59.933079 
	C76.165932,58.921738 76.169159,57.841835 76.293839,56.372337 
	C78.640739,57.066238 78.509941,58.386345 76.483887,59.933079 
z"/>
<path fill="#3C96AB" opacity="1.000000" stroke="none" 
	d="
M69.808701,54.797207 
	C71.024155,53.373508 72.641510,53.724403 74.621582,53.906723 
	C75.022232,53.943844 75.139694,54.361202 75.187637,54.572533 
	C75.235573,54.783867 75.061661,54.945736 74.975708,55.027744 
	C73.632889,56.173855 72.254799,56.240650 70.439301,55.347286 
	C70.086929,55.086720 69.901146,54.893993 69.808701,54.797207 
z"/>
<path fill="#BFF2F9" opacity="1.000000" stroke="none" 
	d="
M52.274345,50.482956 
	C52.168026,50.888405 51.966949,50.915665 51.464893,50.972939 
	C51.030376,49.806946 50.769733,48.601482 51.698349,47.231003 
	C52.039413,48.033337 52.109501,49.069054 52.274345,50.482956 
z"/>
<path fill="#BDF1F8" opacity="1.000000" stroke="none" 
	d="
M48.092953,54.277195 
	C48.164120,54.515358 47.933830,54.794872 47.458462,55.197250 
	C47.406082,54.986259 47.598789,54.652401 48.092953,54.277195 
z"/>
<path fill="#BAF1F7" opacity="1.000000" stroke="none" 
	d="
M64.020691,45.226505 
	C64.112198,45.465172 63.922581,45.754204 63.491081,46.143257 
	C63.412651,45.921143 63.576107,45.599007 64.020691,45.226505 
z"/>
<path fill="#9CD6E2" opacity="1.000000" stroke="none" 
	d="
M46.617821,60.060280 
	C46.821293,60.055828 46.924091,60.197063 47.081406,60.594414 
	C46.929661,60.635674 46.723404,60.420822 46.617821,60.060280 
z"/>
<path fill="#BFF2F9" opacity="1.000000" stroke="none" 
	d="
M52.911636,45.214489 
	C53.014561,45.435555 52.834900,45.753494 52.424614,46.224686 
	C52.339008,46.022415 52.484028,45.666889 52.911636,45.214489 
z"/>
<path fill="#B8EEF6" opacity="1.000000" stroke="none" 
	d="
M47.140236,61.161900 
	C47.343842,61.093872 47.623428,61.277203 47.995846,61.699112 
	C47.797855,61.762878 47.507034,61.588066 47.140236,61.161900 
z"/>
<path fill="#E5FBFD" opacity="1.000000" stroke="none" 
	d="
M70.883774,45.806046 
	C70.712410,45.851723 70.440834,45.662731 70.058228,45.247353 
	C70.225990,45.204433 70.504776,45.387901 70.883774,45.806046 
z"/>
<path fill="#B0E4EE" opacity="1.000000" stroke="none" 
	d="
M53.090710,71.119720 
	C53.211235,70.944237 53.392670,70.939995 53.807358,71.076447 
	C53.744282,71.241745 53.447952,71.266365 53.090710,71.119720 
z"/>
<path fill="#1F99C3" opacity="1.000000" stroke="none" 
	d="
M70.177399,68.613678 
	C66.266922,70.918022 63.979126,70.383003 63.966881,65.285309 
	C64.123146,64.591011 64.296463,64.298447 64.713089,63.913334 
	C66.155624,63.879547 67.319550,63.230957 68.793915,63.802513 
	C69.051460,63.962933 69.007828,64.002869 69.014587,63.974091 
	C69.209335,64.219055 69.428528,64.464989 69.887993,64.815689 
	C70.097054,64.948280 70.012474,64.996513 70.042809,64.958435 
	C70.708244,65.980675 70.438362,67.136841 70.177399,68.613678 
z"/>
<path fill="#499DBA" opacity="1.000000" stroke="none" 
	d="
M68.838974,63.704193 
	C67.814308,64.068863 66.577156,64.174797 65.148201,64.050758 
	C66.068016,62.602936 67.338661,62.940170 68.838974,63.704193 
z"/>
<path fill="#499DBA" opacity="1.000000" stroke="none" 
	d="
M70.125427,68.973999 
	C69.951340,67.884026 69.975319,66.806267 70.036224,65.324440 
	C71.297745,65.794136 71.178291,67.040092 70.864601,68.648972 
	C70.720222,68.998093 70.323502,68.986229 70.125427,68.973999 
z"/>
<path fill="#B0E4EE" opacity="1.000000" stroke="none" 
	d="
M60.190926,68.808960 
	C59.938133,68.236031 59.938229,67.486938 59.992306,66.366707 
	C61.034302,66.745682 61.195763,67.620399 60.190926,68.808960 
z"/>
<path fill="#B8EEF6" opacity="1.000000" stroke="none" 
	d="
M55.913742,62.749184 
	C55.839272,62.938816 55.669624,62.973484 55.244873,62.959312 
	C55.266033,62.805058 55.542297,62.699638 55.913742,62.749184 
z"/>
<path fill="#499DBA" opacity="1.000000" stroke="none" 
	d="
M70.038475,64.677307 
	C69.804008,64.775627 69.510956,64.602974 69.119629,64.187820 
	C69.340866,64.098984 69.660385,64.252655 70.038475,64.677307 
z"/>
<path fill="#209DC3" opacity="1.000000" stroke="none" 
	d="
M70.060806,55.498371 
	C71.422806,55.070118 72.758675,55.053520 74.492157,55.073338 
	C74.669922,56.974014 76.166016,59.704456 72.651421,59.953972 
	C69.510803,60.176941 70.059029,57.812138 70.060806,55.498371 
z"/>
</svg>